<svg width="200" height="200" viewBox="0 0 200 200" xmlns="http://www.w3.org/2000/svg">
  <rect width="200" height="200" rx="32" fill="#0e160e"/>
  <rect x="45" y="40" width="32" height="32" rx="16" fill="#34D399"/><rect x="61" y="40" width="16" height="32" fill="#34D399"/>
  <rect x="80" y="40" width="32" height="32" rx="3" fill="#34D399"/>
  <rect x="115" y="40" width="16" height="32" fill="#34D399"/><rect x="115" y="40" width="32" height="32" rx="16" fill="#34D399"/>
  <circle cx="125" cy="80" r="14" fill="#34D399" opacity="0.7"/>
  <circle cx="100" cy="100" r="14" fill="#34D399" opacity="0.8"/>
  <circle cx="75" cy="120" r="14" fill="#34D399" opacity="0.9"/>
  <rect x="45" y="138" width="32" height="32" rx="16" fill="#34D399"/><rect x="61" y="138" width="16" height="32" fill="#34D399"/>
  <rect x="80" y="138" width="32" height="32" rx="3" fill="#34D399"/>
  <rect x="115" y="138" width="16" height="32" fill="#34D399"/><rect x="115" y="138" width="32" height="32" rx="16" fill="#34D399"/>
</svg>
